PathFileType	4	(X/Y/Z)	pose_F01_0-96.trc
DataRate	CameraRate	NumFrames	NumMarkers	Units	OrigDataRate	OrigDataStartFrame	OrigNumFrames
30	30	11	21	m	30	60	96
Frame#	Time	CHip			RHip			RKnee			RAnkle			RBigToe			RSmallToe			RHeel			LHip			LKnee			LAnkle			LBigToe			LSmallToe			LHeel			Neck			Nose			RShoulder			RElbow			RWrist			LShoulder			LElbow			LWrist			
		X1	Y1	Z1	X2	Y2	Z2	X3	Y3	Z3	X4	Y4	Z4	X5	Y5	Z5	X6	Y6	Z6	X7	Y7	Z7	X8	Y8	Z8	X9	Y9	Z9	X10	Y10	Z10	X11	Y11	Z11	X12	Y12	Z12	X13	Y13	Z13	X14	Y14	Z14	X15	Y15	Z15	X16	Y16	Z16	X17	Y17	Z17	X18	Y18	Z18	X19	Y19	Z19	X20	Y20	Z20	X21	Y21	Z21	
60	2.0	-0.30549654739406334	1.8191704999895877	-0.6551397569961198	-0.32118057338059197	1.816226208778228	-0.5883311361951947	-0.31483571252658393	1.6894939453550337	-0.5443754479242852	-0.3135058965856029	1.557075738851825	-0.49367777422299597	-0.2756913625147391	1.53359575871423	-0.4809308479940478	-0.2853288687782144	1.537698962008332	-0.4565689979726905	-0.32987541578561697	1.5407700865511877	-0.520243822846574	-0.2969815551339163	1.8206471446467156	-0.7129661729318286	-0.29722164456482125	1.6947452779072534	-0.7327322897528298													-0.3015098062961185	1.9836884303477602	-0.6867334091462561	-0.2491037784284633	2.0329366801378046	-0.6762815541112732	-0.3168189994537281	1.97970460905269	-0.6010438256647214	-0.3337054892196153	1.9027655876780103	-0.5415629562544889	-0.2954774594895803	1.8649008785322378	-0.4792698378523777	-0.28332472610019316	1.9845853064083379	-0.7688201473758927	-0.8713228743404595	1.834013402515274	-0.2409230296639269	-0.2199112902382373	1.8545801642564401	-0.7875172845345749
61	2.033333333333333	-0.31445651125924	1.8192443568811028	-0.6292764498620932	-0.3223763197760884	1.8201422308962698	-0.5745379941332067	-0.31411079411773823	1.6919709734266668	-0.5323050612607989	-0.3083587691849707	1.5533876715858246	-0.48084042529441423	-0.2699556394262723	1.5300316139621597	-0.460101707324135	-0.2811095301100204	1.534306998233471	-0.43813444615747094	-0.32987541578561697	1.5407700865511877	-0.520243822846574	-0.3042302401663827	1.8228843361074034	-0.6895453819089311	-0.29722164456482125	1.6947452779072534	-0.7327322897528298													-0.2980710359285246	1.982877193180979	-0.6662676052905407	-0.2454528975146106	2.0329066693699906	-0.6552454600392617	-0.3148761450214668	1.9792764194243788	-0.586349189250842	-0.3368812487827439	1.9003299917024137	-0.5167006822193966	-0.30072633305401136	1.8649689659522268	-0.45553274806646443	-0.28256386405735356	1.981212123540465	-0.7459782145952574	-0.9192506211098722	1.8300012141517565	-0.17345010516853177	-0.2236901246499151	1.8559959606459937	-0.7716108511997157
62	2.066666666666667	-0.31052153455980197	1.8219619900318729	-0.6080519045956425	-0.3201621992862902	1.818517225721172	-0.5507302672621248	-0.31153645034836763	1.6869694653391585	-0.5166056095136955	-0.30688464095288304	1.5517439387932035	-0.4773266860188953	-0.26895663215604015	1.5294900196359396	-0.4590922104678879	-0.2777089832555509	1.5278699230123545	-0.4326878170629787	-0.32987541578561697	1.5407700865511877	-0.520243822846574	-0.3029902443089991	1.8242751444943548	-0.6662550619827687	-0.2954323391014899	1.6972290987268313	-0.6850847621286776													-0.29432374082610574	1.9796517550293133	-0.6448178008327808	-0.23701753060580716	2.0325086802769725	-0.6359281926454171	-0.30777810452743065	1.9770767689832773	-0.5639278059798446	-0.33657282342655725	1.8975215876936418	-0.4992676213522188	-0.2985111251972681	1.8566301864597399	-0.43897187246320185	-0.28252408722464	1.9782162404717476	-0.7259297809887251	-0.9737298993191836	1.8282453824889442	-0.09220067771212766	-0.2254178600375844	1.8513636514449014	-0.757593547148947
63	2.1	-0.30630453139986463	1.817771089660945	-0.5864554415405824	-0.3197285253688973	1.8176468488869069	-0.5248507545167832	-0.30796407211835	1.6871426385821762	-0.5071823804033085	-0.30675807427836155	1.5515974096646687	-0.47669846182902414	-0.267957624885808	1.5289484253097194	-0.4580827136116407	-0.27670540339155225	1.5282925449451117	-0.4293162356976262	-0.32987541578561697	1.5407700865511877	-0.520243822846574	-0.2978684910237786	1.8191946356124138	-0.6415768529964146	-0.29987016101445124	1.689882005466345	-0.6630907900383186													-0.29461087936278263	1.9772478279353687	-0.6276175428023029	-0.23245524524057648	2.032171884220019	-0.620917243301249	-0.3056500219422075	1.9764113179771854	-0.5491454781967297	-0.32904324685439645	1.898009325110483	-0.4851831741809073	-0.29629570756259416	1.8535332226881904	-0.4229717958239707	-0.2821504445774181	1.97634025712406	-0.7060329147053008	-1.0293600363916962	1.8303594964478211	-0.012914363216166612	-0.2199458160469675	1.8499947253934388	-0.755400708238838
64	2.1333333333333333	-0.3086883816204772	1.8157147970379186	-0.5670345725141015	-0.3191689238424146	1.8143554479021584	-0.5124838467695658	-0.3053585518501	1.6856494100274533	-0.49632476273149895	-0.30663150760384006	1.551450880536134	-0.47607023763915296	-0.2669586176155759	1.5284068309834993	-0.4570732167553936	-0.2768865335732342	1.529218428701189	-0.42933341027126964	-0.32987541578561697	1.5407700865511877	-0.520243822846574	-0.2975043241800743	1.8194000592514052	-0.6296532407604889	-0.30194526567862445	1.6894525493842056	-0.6312555089432217													-0.2909534972772022	1.975486027171031	-0.60675070228419	-0.22888404847939126	2.02950069192037	-0.6086416945863893	-0.2995301565249646	1.974133304055132	-0.5297995308318467	-0.3239235475222802	1.8946403656781654	-0.46881285455321586	-0.29217118435846623	1.8436087070812692	-0.41354878193550254	-0.2766853469332634	1.973301443245507	-0.6872114897803295	-1.0692467340654626	1.8308517323864166	0.046924459123692905	-0.22417678975627506	1.8479334446553488	-0.7386462419388703
65	2.1666666666666665	-0.3102487162132266	1.814708898574161	-0.5610393069157034	-0.3194237599801911	1.8124266108943996	-0.5033129541899145	-0.3051154487629222	1.6847610629762722	-0.48770455498508497	-0.30650494092931857	1.5513043514075993	-0.47544201344928183	-0.2659596103453437	1.5278652366572791	-0.45606371989914646	-0.2767520646896649	1.5284439695715117	-0.4293292250007919	-0.32987541578561697	1.5407700865511877	-0.520243822846574	-0.2947171059036834	1.8166630071365917	-0.6197507325246392	-0.2955793628350749	1.692100105525655	-0.6078179145336721													-0.28713309384137664	1.9724885100236045	-0.5938482531138722	-0.22521612087339532	2.027792517339419	-0.5963882657691281	-0.2974062519261429	1.9726647360173855	-0.5149869830100676	-0.31579049620754746	1.8929064078204516	-0.4599398824567582	-0.28752267933390446	1.8447487719609514	-0.4005382484258073	-0.2731590721615168	1.9717050531403493	-0.674916876802104	-1.0948484421511564	1.8261994830186556	0.09142544712332719	-0.22340911753895534	1.8397522952146912	-0.7265438543148987
66	2.2	-0.3106016778579415	1.8178611525783792	-0.5476910209512937	-0.3156403317087504	1.8140816340373234	-0.49396890343143274	-0.30478266699559325	1.6855894464192496	-0.48809342374449427	-0.306378374254797	1.5511578222790645	-0.4748137892594107	-0.26496060307511154	1.527323642331059	-0.4550542230428993	-0.27873597575542547	1.5284227330298463	-0.4271592324724607	-0.32987541578561697	1.5407700865511877	-0.520243822846574	-0.30085540282490675	1.8192360616690086	-0.6050197553118184	-0.2933642618010066	1.690275515213705	-0.6015351378610861													-0.28618811657222465	1.970701838805746	-0.5818027603066931	-0.22249646411658366	2.024826457722214	-0.586608973126334	-0.2962510314853042	1.9691339821450582	-0.5023774069733409	-0.3085336482229856	1.8888840000092282	-0.4538624022256765	-0.2802700625334904	1.8406581184972695	-0.3940220309073972	-0.27028419483540284	1.9688429346379221	-0.6648204318063841	-0.27792258514637813	1.8961908604104376	-0.7022174847879272	-0.22550711261712053	1.8363816191874653	-0.7239577923393173
67	2.2333333333333334	-0.309761997121926	1.8156965204698774	-0.5439834864902603	-0.31666972075393035	1.8088409418518723	-0.4879599230387676	-0.30329472509918054	1.6862157453805482	-0.48963468480295813	-0.30625180758027554	1.5510112931505298	-0.4741855650695395	-0.2639615958048794	1.5267820480048389	-0.45404472618665215	-0.27663884001993755	1.5279207631276928	-0.4295554867782617	-0.32987541578561697	1.5407700865511877	-0.520243822846574	-0.3041260674564542	1.8171133324072395	-0.5973056018792098	-0.2929906768756657	1.6907018661307749	-0.6019097334755745													-0.2864283207143902	1.9667358604752874	-0.5730590077563397	-0.22169879417036384	2.0235482675381227	-0.5833968033308479	-0.2943628383606231	1.9674530897791551	-0.49615125069784544	-0.3087549568094541	1.8810068644724898	-0.44404109367728756	-0.2634509273517728	1.8286241013654092	-0.4024724741765922	-0.2704284190471139	1.9672359410956288	-0.6560310122195993	-0.2767077251102222	1.8911627091164094	-0.6985190182019441	-0.22499556457118736	1.8300799007893516	-0.7200392562100684
68	2.2666666666666666	-0.3115065625299314	1.8203058335348155	-0.5424076514932661	-0.31637380652899844	1.8144996506767948	-0.48867960339410693	-0.30280235413505163	1.6892581175058972	-0.4904692010837397	-0.30612524090575405	1.550864764021995	-0.4735573408796684	-0.26296258853464727	1.5262404536786187	-0.453035229330405	-0.276697948113105	1.5281718145989236	-0.4295637697486761	-0.32987541578561697	1.5407700865511877	-0.520243822846574	-0.3039715207355889	1.8221047393124479	-0.5976575792801718	-0.290847079199062	1.6934179895057666	-0.6044541180611664													-0.28569739863425164	1.962980416515049	-0.5693793700658082	-0.220852297627148	2.0212111959905728	-0.579877881167129	-0.2935871332112911	1.9625888780268859	-0.4924742965362718	-0.3049016643729271	1.8760948347517676	-0.44741493678386585	-0.255788847513958	1.82415649292922	-0.4104370797463741	-0.26874995994260487	1.966671199226681	-0.6497802239340557	-0.2823237038204824	1.893661125935968	-0.6888238143364861	-0.23019553005811022	1.8400007158266074	-0.7194090495360972
69	2.3	-0.31238879554379834	1.8218210674326103	-0.5457239737643188	-0.31922865190982147	1.8171446337213555	-0.49005633495038536	-0.3024768942790021	1.689881918887371	-0.49090752416009725	-0.3057414153292771	1.5515568629791943	-0.4740882186269732	-0.2619635812644151	1.5256988593523986	-0.45202573247415784	-0.2749998420378232	1.529569134255087	-0.4314302685548478	-0.32987541578561697	1.5407700865511877	-0.520243822846574	-0.30479381832020336	1.823105611140975	-0.6009146709038384	-0.2915195276598504	1.693605188040465	-0.6069382966712861													-0.28467478954484393	1.961468902416671	-0.565859625263681	-0.2209455614758744	2.01728173297238	-0.5788820812659627	-0.2916888300004064	1.9576959833117344	-0.4935958644680167	-0.3018471594331389	1.8760014331289245	-0.4463692558951505	-0.2582159606398715	1.8224058183323164	-0.4113634800053974	-0.27284484793493363	1.965020457144391	-0.6450846698045437	-0.2815022253072171	1.8937428372387983	-0.6857183308475775	-0.23265849555864548	1.845548811406987	-0.7175381786062583
70	2.3333333333333335	-0.3134964642664856	1.8191472182628448	-0.5488193049228757	-0.31743475041261726	1.8149556328116918	-0.4919983820904953	-0.3024173956192643	1.6879198879554145	-0.49082709175919564	-0.30557764645148205	1.550740176665839	-0.474077298179469	-0.26096457399418294	1.5251572650261784	-0.4510162356179107	-0.2746648301996521	1.5283870478102066	-0.43153960305596223	-0.32987541578561697	1.5407700865511877	-0.520243822846574	-0.3056798491666233	1.8219103696047838	-0.6040957899548978	-0.2921919761206388	1.6937923865751632	-0.6094224752814057													-0.28582224112574184	1.9604862973165789	-0.5688238674073529	-0.22291024879852334	2.011895829864059	-0.5753821003265832	-1.6425481936976154	1.8779969486681372	0.9646031300073621	-0.29986931580785414	1.8723113674590697	-0.44785977896985135	-0.2559494971698431	1.8150049172034477	-0.41250693282167816	-0.27824787300847176	1.96388469540371	-0.6436793870578249	-0.2814225364510215	1.892337880997837	-0.6854062866950721	-0.23425571882056986	1.8376814450032395	-0.7150669157795798
